# xmcd
#
# Track frame offsets:
#	182
#	14327
#	29007
#	41602
#	54687
#	68167
#	81915
#	96167
#	109575
#	120417
#	134030
#	147870
#	159170
#	171155
#	185152
#	199847
#	210627
#	225715
#
# Disc length: 3172 seconds
#
# Revision: 3
# Processed by: cddbd v1.5PL3 Copyright (c) Steve Scherf et al.
# Submitted via: EasyCDDAExtractor 6.2.0.3
#
DISCID=030c6212
DTITLE=The Andrews Sisters - The best of The Andrews Sisters
DYEAR=1900
DGENRE=Blues
TTITLE0=Bei Mir Bist Du Schon
TTITLE1=Hold Tight (Want Some Seafood Mama)
TTITLE2=Along The Navajo Trail
TTITLE3=Shoo Shoo Baby
TTITLE4=I'll Be With You In Apple Blossom Time
TTITLE5=Civilization (Bongo, Bongo, Bongo)
TTITLE6=Rum and Coca-Cola
TTITLE7=Teresa
TTITLE8=Sabre Dance
TTITLE9=Near You
TTITLE10=Cuanto La Gusta
TTITLE11=Oh, You Sweet One
TTITLE12=I Can Dream, Can't I?
TTITLE13=The Old Piano Roll Blues
TTITLE14=I Wanna Be Loved
TTITLE15=A Bushel and A Peck
TTITLE16=Have I Told You Lately That I Love You?
TTITLE17=Boogie Woogie Bugle Boy
EXTD=
EXTT0=
EXTT1=
EXTT2=
EXTT3=
EXTT4=
EXTT5=
EXTT6=
EXTT7=
EXTT8=
EXTT9=
EXTT10=
EXTT11=
EXTT12=
EXTT13=
EXTT14=
EXTT15=
EXTT16=
EXTT17=
PLAYORDER=
